<svg width="91" height="75" viewBox="0 0 91 75" fill="none" xmlns="http://www.w3.org/2000/svg">
<path d="M53.7794 -2.06824e-06C53.7794 -2.06824e-06 45.8768 19.0689 56.8192 37.005C68.4208 56.0217 90.1002 56.7977 90.1002 56.7977C90.1002 56.7977 65.1822 62.4481 51.5478 38.5941C39.8617 18.1488 53.7794 -2.06824e-06 53.7794 -2.06824e-06Z" fill="white"/>
<path d="M36.3208 -2.06824e-06C36.3208 -2.06824e-06 44.2234 19.0689 33.281 37.005C21.6793 56.0217 0 56.7977 0 56.7977C0 56.7977 24.918 62.4481 38.5524 38.5941C50.2385 18.1488 36.3208 -2.06824e-06 36.3208 -2.06824e-06Z" fill="white"/>
<path d="M10.8418 72.6369C10.8418 72.6369 24.5189 55.2855 45.5232 55.7939C67.7928 56.333 77.9625 72.8468 77.9625 72.8468C77.9625 72.8468 72.2582 50.1121 44.7823 50.1121C19.7771 50.1121 10.8418 72.6369 10.8418 72.6369Z" fill="white"/>
<path d="M45.523 57.691C35.7929 57.4554 27.6366 61.053 21.6826 64.9825C27.6815 70.9115 35.9263 74.5729 45.027 74.5729C54.0821 74.5729 62.2892 70.9475 68.2806 65.0713C62.9902 61.3549 55.4629 57.9316 45.523 57.691Z" fill="white"/>
<path d="M58.7162 36.0564C63.7122 44.2455 70.5765 49.0502 76.774 51.869C78.3302 48.0201 79.189 43.8145 79.189 39.4079C79.189 23.669 68.2592 10.4845 53.5764 7.02614C52.3679 14.2433 52.1852 25.3511 58.7162 36.0564Z" fill="white"/>
<path d="M31.338 36.0564C26.342 44.2455 19.4777 49.0502 13.2802 51.869C11.724 48.0201 10.8652 43.8145 10.8652 39.4079C10.8652 23.669 21.795 10.4845 36.4779 7.02614C37.6863 14.2433 37.8691 25.3511 31.338 36.0564Z" fill="white"/>
<path d="M44.3145 48.0361C39.0071 48.0592 34.498 49.2158 30.7061 50.9608C34.3248 48.333 37.7955 44.6615 40.7164 39.5511C43.5361 34.6183 44.773 29.8282 45.0563 25.4288C45.3399 29.8282 46.5768 34.6183 49.3962 39.5511C52.4613 44.9132 56.1306 48.6922 59.9421 51.3421C55.7141 49.3277 50.5613 48.0089 44.3145 48.0361Z" fill="white"/>
</svg>
